<svg width="34" height="34" viewBox="0 0 34 34" fill="none" xmlns="http://www.w3.org/2000/svg">
<path d="M16.5361 0C7.41881 0 0 7.41675 0 16.5351C0 25.6534 7.41881 33.0701 16.5361 33.0701C25.6534 33.0701 33.0722 25.6534 33.0722 16.5351C33.0722 7.41675 25.6534 0 16.5361 0ZM16.5361 31.9688C8.02622 31.9688 1.10344 25.0449 1.10344 16.5351C1.10344 8.02519 8.02622 1.10138 16.5361 1.10138C25.046 1.10138 31.9688 8.02519 31.9688 16.5351C31.9688 25.0449 25.046 31.9688 16.5361 31.9688Z" fill="#444444"/>
<path d="M25.5687 11.3912C25.6831 11.1795 25.7774 10.9575 25.8502 10.7281C25.884 10.6217 25.8847 10.5076 25.8522 10.4008C25.8197 10.2941 25.7556 10.1996 25.6684 10.13C25.5811 10.0604 25.4748 10.0189 25.3635 10.011C25.2522 10.0031 25.1411 10.0291 25.0448 10.0857C24.5164 10.3996 23.9444 10.6335 23.3474 10.7797C22.6227 10.1256 21.6815 9.76305 20.7053 9.76184C20.175 9.76225 19.6502 9.86974 19.1624 10.0779C18.6746 10.286 18.2338 10.5905 17.8665 10.9731C17.4992 11.3557 17.213 11.8085 17.0249 12.3044C16.8369 12.8003 16.7509 13.3291 16.7722 13.859C14.4529 13.567 12.335 12.3934 10.8579 10.5817C10.8013 10.513 10.729 10.4591 10.6471 10.4244C10.5652 10.3897 10.4761 10.3752 10.3874 10.3823C10.2988 10.3894 10.2131 10.4178 10.1377 10.4651C10.0624 10.5124 9.99954 10.5771 9.95456 10.6539C9.61634 11.2344 9.4325 11.8919 9.42058 12.5636C9.40867 13.2354 9.56907 13.899 9.8865 14.4912C9.80865 14.5043 9.73386 14.5316 9.66581 14.5716C9.58243 14.6248 9.51378 14.6981 9.4662 14.7848C9.41862 14.8715 9.39364 14.9687 9.39356 15.0676C9.39356 16.2381 9.91434 17.3127 10.7538 18.0428L10.7177 18.0789C10.6543 18.1506 10.6107 18.2375 10.5912 18.3312C10.5717 18.4249 10.5769 18.522 10.6063 18.6131C10.7814 19.1591 11.0736 19.6604 11.4627 20.0816C11.8517 20.5029 12.3281 20.8341 12.8586 21.052C11.7691 21.5834 10.55 21.7907 9.34612 21.6491C9.22238 21.6364 9.09795 21.6652 8.99232 21.7309C8.88669 21.7966 8.80584 21.8955 8.76244 22.0121C8.72075 22.1295 8.71997 22.2576 8.76022 22.3755C8.80046 22.4934 8.87938 22.5943 8.98415 22.6617C10.6208 23.7121 12.5247 24.2702 14.4694 24.2695C20.8425 24.2695 24.6519 19.0926 24.6519 14.0879L24.6509 13.9188C25.2686 13.4366 25.8051 12.8587 26.2401 12.2069C26.3059 12.1084 26.3383 11.9913 26.3324 11.8729C26.3266 11.7545 26.2827 11.6412 26.2074 11.5497C26.1321 11.4582 26.0293 11.3934 25.9143 11.3648C25.7992 11.3363 25.6781 11.3455 25.5687 11.3912ZM23.7692 13.2011C23.6944 13.2549 23.6342 13.3266 23.5942 13.4096C23.5542 13.4927 23.5357 13.5844 23.5402 13.6765C23.5464 13.8126 23.5495 13.9508 23.5495 14.0869C23.5495 18.5502 20.1536 23.1671 14.4704 23.1671C13.4568 23.1675 12.4503 22.9974 11.4932 22.6638C12.6395 22.4441 13.7164 21.9525 14.6333 21.2304C14.7226 21.16 14.7879 21.0638 14.8204 20.9548C14.8529 20.8459 14.851 20.7296 14.8149 20.6218C14.7788 20.5141 14.7102 20.4201 14.6187 20.3527C14.5271 20.2854 14.417 20.2479 14.3033 20.2455C13.8587 20.237 13.4223 20.1242 13.0293 19.916C12.6362 19.7079 12.2976 19.4103 12.0408 19.0472C12.3017 19.0297 12.5574 18.9864 12.806 18.9193C12.9263 18.8871 13.0321 18.8151 13.1062 18.7151C13.1803 18.615 13.2183 18.4928 13.2139 18.3683C13.2096 18.2439 13.1633 18.1246 13.0825 18.0299C13.0016 17.9352 12.8911 17.8706 12.7688 17.8468C12.2666 17.7447 11.8017 17.5079 11.4237 17.1619C11.0457 16.8158 10.7688 16.3735 10.6228 15.8823C10.8971 15.9514 11.1787 15.9916 11.4602 16.0009C11.7025 15.9999 11.9273 15.8514 12.0026 15.6183C12.0779 15.3852 11.9892 15.1285 11.784 14.9923C11.2988 14.6691 10.9252 14.2039 10.7142 13.6603C10.5032 13.1167 10.4652 12.5213 10.6053 11.9553C12.3966 13.7933 14.8154 14.8878 17.3785 15.0202C17.56 15.0212 17.7188 14.9562 17.8292 14.8232C17.9395 14.6902 17.9818 14.5138 17.9426 14.3447C17.8016 13.7373 17.8647 13.1003 18.1221 12.5324C18.3796 11.9645 18.817 11.4972 19.3668 11.203C19.9166 10.9087 20.548 10.8038 21.1634 10.9046C21.7787 11.0054 22.3437 11.3062 22.7709 11.7604C22.835 11.8287 22.9153 11.8796 23.0044 11.9083C23.0936 11.937 23.1885 11.9425 23.2804 11.9244C23.4505 11.8903 23.6186 11.8512 23.7847 11.8058C23.7098 11.8618 23.632 11.9138 23.5516 11.9615C23.4447 12.027 23.3632 12.127 23.3207 12.245C23.2782 12.363 23.2772 12.4919 23.3178 12.6106C23.3584 12.7292 23.4382 12.8305 23.544 12.8977C23.6499 12.9649 23.7755 12.9941 23.9002 12.9804L24.0878 12.9567C23.9845 13.0418 23.8782 13.1233 23.7692 13.2011Z" fill="#444444"/>
</svg>
